<svg width="245" height="295" viewBox="0 0 245 295" fill="none" xmlns="http://www.w3.org/2000/svg">
<mask id="path-1-inside-1_1020_149" fill="white">
<path d="M200 0C224.853 0 245 20.1472 245 45V220.684C245 245.536 224.834 265.683 199.981 265.684H56.8262L46.9375 294.438L36.7891 264.93C15.863 261.063 0 242.726 0 220.684V45C0 20.1472 20.1472 7.62265e-07 45 0H200Z"/>
</mask>
<path d="M245 45L246 45V45L245 45ZM199.981 265.684L199.981 266.684L199.981 266.684L199.981 265.684ZM56.8262 265.684V264.684H56.1126L55.8805 265.358L56.8262 265.684ZM46.9375 294.438L45.9919 294.764L46.9375 297.513L47.8831 294.764L46.9375 294.438ZM36.7891 264.93L37.7347 264.604L37.5448 264.052L36.9708 263.946L36.7891 264.93ZM45 0L45 -1L45 -1L45 0ZM200 0V1C224.301 1 244 20.6995 244 45L245 45L246 45C246 19.5949 225.405 -1 200 -1V0ZM245 45H244V220.684H245H246V45H245ZM245 220.684H244C244 244.983 224.282 264.683 199.981 264.684L199.981 265.684L199.981 266.684C225.386 266.683 246 246.089 246 220.684H245ZM199.981 265.684V264.684H56.8262V265.684V266.684H199.981V265.684ZM56.8262 265.684L55.8805 265.358L45.9919 294.113L46.9375 294.438L47.8831 294.764L57.7718 266.009L56.8262 265.684ZM46.9375 294.438L47.8831 294.113L37.7347 264.604L36.7891 264.93L35.8434 265.255L45.9919 294.764L46.9375 294.438ZM36.7891 264.93L36.9708 263.946C16.5097 260.166 1 242.234 1 220.684H0H-1C-1 243.217 15.2163 261.96 36.6074 265.913L36.7891 264.93ZM0 220.684H1V45H0H-1V220.684H0ZM0 45H1C1 20.6995 20.6995 1 45 1L45 0L45 -1C19.5949 -0.999999 -1 19.5949 -1 45H0ZM45 0V1H200V0V-1H45V0Z" fill="#B9FF66" mask="url(#path-1-inside-1_1020_149)"/>
</svg>
