<svg width="949" height="650" viewBox="0 0 949 650" fill="none" xmlns="http://www.w3.org/2000/svg">
<mask id="mask0_341_618" style="mask-type:alpha" maskUnits="userSpaceOnUse" x="110" y="0" width="840" height="650">
<mask id="path-1-outside-1_341_618" maskUnits="userSpaceOnUse" x="109.977" y="0" width="840" height="650" fill="black">
<rect fill="white" x="109.977" width="840" height="650"/>
<path d="M529.969 162.561L556.31 1L556.104 163.837L608.375 6.10362L582.034 167.665L659.412 16.1514L607.14 174.045L708.39 31.1432L630.806 182.657L754.487 50.7603L653.032 193.662L796.88 74.843L673.405 206.58L835.363 102.753L691.309 221.413L868.907 134.173L706.744 237.999L897.101 168.622L719.503 255.862L919.532 205.464L729.175 274.841L935.79 244.219L735.76 294.618L945.668 284.251L739.053 314.713L948.961 324.92L739.053 335.128L945.668 365.59L735.76 355.383L935.79 405.621L729.175 375.159L919.532 444.536L719.503 394.138L897.101 481.378L706.744 412.001L868.907 515.828L691.309 428.428L835.363 547.247L673.405 443.26L796.88 575.157L653.032 456.338L754.487 599.08L630.806 467.184L708.39 618.697L607.14 475.955L659.412 633.689L582.034 482.176L608.375 643.896L556.104 486.003L556.31 649L529.969 487.279L503.627 649L503.627 486.003L451.356 643.896L477.903 482.176L400.526 633.689L452.797 475.955L351.547 618.697L429.131 467.184L305.45 599.08L406.905 456.338L262.851 575.157L386.532 443.26L224.574 547.247L368.628 428.428L191.03 515.828L353.193 412.001L162.836 481.378L340.434 394.138L140.405 444.536L330.762 375.159L124.147 405.621L324.177 355.383L114.269 365.59L320.884 335.128L110.977 324.92L320.884 314.713L114.269 284.251L324.177 294.618L124.147 244.219L330.762 274.841L140.405 205.464L340.434 255.862L162.836 168.622L353.193 237.999L191.03 134.173L368.628 221.413L224.574 102.753L386.532 206.58L262.851 74.843L406.905 193.662L305.45 50.7603L429.131 182.657L351.547 31.1432L452.797 174.045L400.526 16.1514L477.903 167.665L451.356 6.10362L503.627 163.837V1L529.969 162.561Z"/>
</mask>
<path d="M529.969 162.561L556.31 1L556.104 163.837L608.375 6.10362L582.034 167.665L659.412 16.1514L607.14 174.045L708.39 31.1432L630.806 182.657L754.487 50.7603L653.032 193.662L796.88 74.843L673.405 206.58L835.363 102.753L691.309 221.413L868.907 134.173L706.744 237.999L897.101 168.622L719.503 255.862L919.532 205.464L729.175 274.841L935.79 244.219L735.76 294.618L945.668 284.251L739.053 314.713L948.961 324.92L739.053 335.128L945.668 365.59L735.76 355.383L935.79 405.621L729.175 375.159L919.532 444.536L719.503 394.138L897.101 481.378L706.744 412.001L868.907 515.828L691.309 428.428L835.363 547.247L673.405 443.26L796.88 575.157L653.032 456.338L754.487 599.08L630.806 467.184L708.39 618.697L607.14 475.955L659.412 633.689L582.034 482.176L608.375 643.896L556.104 486.003L556.31 649L529.969 487.279L503.627 649L503.627 486.003L451.356 643.896L477.903 482.176L400.526 633.689L452.797 475.955L351.547 618.697L429.131 467.184L305.45 599.08L406.905 456.338L262.851 575.157L386.532 443.26L224.574 547.247L368.628 428.428L191.03 515.828L353.193 412.001L162.836 481.378L340.434 394.138L140.405 444.536L330.762 375.159L124.147 405.621L324.177 355.383L114.269 365.59L320.884 335.128L110.977 324.92L320.884 314.713L114.269 284.251L324.177 294.618L124.147 244.219L330.762 274.841L140.405 205.464L340.434 255.862L162.836 168.622L353.193 237.999L191.03 134.173L368.628 221.413L224.574 102.753L386.532 206.58L262.851 74.843L406.905 193.662L305.45 50.7603L429.131 182.657L351.547 31.1432L452.797 174.045L400.526 16.1514L477.903 167.665L451.356 6.10362L503.627 163.837V1L529.969 162.561Z" stroke="black" stroke-width="2" stroke-miterlimit="10" mask="url(#path-1-outside-1_341_618)"/>
</mask>
<g mask="url(#mask0_341_618)">
<rect x="-2033.13" y="-37.1172" width="2987.3" height="702.852" rx="45" fill="black"/>
</g>
<path d="M254.131 492.596L375.287 517.5L254.131 542.604L187.854 588.21L121.576 542.604L0.419643 517.5L121.576 492.596L187.854 446.789L254.131 492.596Z" fill="#B9FF66"/>
<path d="M575.891 266.065L792.389 310.566L575.891 355.425L457.457 436.922L339.023 355.425L122.525 310.566L339.023 266.065L457.457 184.211L575.891 266.065Z" fill="#191A23"/>
</svg>
