<svg width="129" height="32" viewBox="0 0 129 32" fill="none" xmlns="http://www.w3.org/2000/svg">
<path d="M14.335 5.1062V14.1939H4.91805V5.1062H0.447266V26.7995H4.91805V18.0069H14.335V26.7995H18.8057V5.1062H14.335Z" fill="#434343"/>
<path d="M33.114 19.7867C33.114 20.6561 32.7243 21.4899 32.0307 22.1046C31.3371 22.7194 30.3963 23.0647 29.4154 23.0647C28.4344 23.0647 27.4937 22.7194 26.8 22.1046C26.1064 21.4899 25.7167 20.6561 25.7167 19.7867V10.4951H21.4759V19.7867C21.4759 21.6511 22.3116 23.4392 23.7991 24.7575C25.2866 26.0759 27.3041 26.8165 29.4077 26.8165C31.5113 26.8165 33.5288 26.0759 35.0163 24.7575C36.5038 23.4392 37.3395 21.6511 37.3395 19.7867V10.4951H33.114V19.7867Z" fill="#434343"/>
<path d="M64.5354 11.4527C64.5354 9.54816 65.957 8.94439 67.5144 8.94439C68.7696 8.94439 70.4278 9.79084 71.5121 10.8178L74.2896 7.91738C72.903 6.25554 70.0905 5.10622 67.7883 5.10622C63.1882 5.10622 59.8609 7.49415 59.8609 11.4527C59.8609 18.797 69.9897 16.4673 69.9897 20.5773C69.9897 21.845 68.6009 22.9652 67.0106 22.9652C64.5025 22.9652 63.6898 21.878 62.5377 20.7287L59.4556 23.569C61.4271 25.7143 63.8585 26.8034 66.7719 26.8034C71.1419 26.8034 74.6576 24.3863 74.6576 20.6084C74.6576 12.4545 64.5288 14.988 64.5288 11.4527" fill="#434343"/>
<path d="M127.197 23.3339C124.691 23.3339 123.979 22.3729 123.979 20.9013V14.3878H127.873V11.0874H123.979V6.73286L119.679 8.44324V21.7108C119.679 25.1044 122.321 26.8148 125.944 26.8148C126.512 26.824 127.08 26.7837 127.639 26.6944L128.688 23.2717C128.215 23.3008 127.672 23.33 127.197 23.33" fill="#434343"/>
<path d="M49.2568 10.6046C47.1561 10.6046 45.6906 11.1443 44.2734 12.3771V5.23664H40.026V18.4712C40.026 23.4257 44.0675 26.8193 48.6084 26.8193C53.6465 26.8193 58.0779 23.3655 58.0779 18.7139C58.0779 14.1205 53.9992 10.6066 49.2568 10.6066V10.6046ZM49.2305 23.0316C48.2773 23.0316 47.3456 22.7811 46.5531 22.3118C45.7606 21.8425 45.143 21.1754 44.7782 20.395C44.4135 19.6145 44.318 18.7558 44.504 17.9272C44.6899 17.0987 45.1489 16.3377 45.8229 15.7404C46.4968 15.143 47.3555 14.7363 48.2903 14.5715C49.2251 14.4067 50.1941 14.4912 51.0747 14.8145C51.9552 15.1378 52.7079 15.6852 53.2374 16.3876C53.7669 17.09 54.0495 17.9158 54.0495 18.7605C54.0495 19.8933 53.5418 20.9796 52.6381 21.7806C51.7343 22.5816 50.5086 23.0316 49.2305 23.0316Z" fill="#434343"/>
<path d="M95.3751 18.515C95.3751 13.8557 90.9525 10.4096 85.9056 10.4096C81.3647 10.4096 77.3233 13.8032 77.3233 18.7577V32.0001H81.5706V24.8499C82.9857 26.0807 84.4533 26.6224 86.5518 26.6224C91.2942 26.6224 95.3729 23.1103 95.3729 18.515H95.3751ZM91.3534 18.4684C91.3534 19.3132 91.0707 20.139 90.5412 20.8413C90.0117 21.5437 89.259 22.0912 88.3785 22.4144C87.4979 22.7377 86.5289 22.8223 85.5941 22.6575C84.6593 22.4927 83.8007 22.0859 83.1267 21.4886C82.4527 20.8912 81.9938 20.1302 81.8078 19.3017C81.6219 18.4732 81.7173 17.6144 82.082 16.834C82.4468 16.0535 83.0645 15.3865 83.857 14.9171C84.6495 14.4478 85.5812 14.1973 86.5343 14.1973C87.8124 14.1973 89.0381 14.6473 89.9419 15.4483C90.8456 16.2493 91.3534 17.3357 91.3534 18.4684Z" fill="#434343"/>
<path d="M109.054 10.3496V6.60661C109.612 6.37558 110.084 6.00875 110.416 5.54887C110.748 5.08898 110.926 4.55495 110.929 4.00901V3.92164C110.926 3.15869 110.583 2.42756 109.975 1.88807C109.366 1.34858 108.541 1.04459 107.68 1.04254H107.582C106.721 1.04459 105.896 1.34858 105.287 1.88807C104.678 2.42756 104.335 3.15869 104.333 3.92164V4.00901C104.336 4.55495 104.514 5.08898 104.846 5.54887C105.178 6.00875 105.65 6.37558 106.208 6.60661V10.3496C104.604 10.5671 103.092 11.1565 101.827 12.0581L90.2308 4.06143C90.3133 3.79763 90.3575 3.52557 90.3622 3.25186C90.3631 2.60947 90.149 1.98128 89.747 1.44673C89.3451 0.912174 88.7733 0.495267 88.104 0.248727C87.4347 0.00218587 86.6979 -0.0629153 85.9869 0.0616553C85.2758 0.186226 84.6224 0.494874 84.1093 0.948568C83.5962 1.40226 83.2464 1.98063 83.1041 2.61052C82.9619 3.24042 83.0336 3.89355 83.3101 4.48734C83.5867 5.08112 84.0557 5.58888 84.6579 5.94641C85.2601 6.30394 85.9683 6.49518 86.6932 6.49595C87.3298 6.49385 87.9546 6.34319 88.5047 6.05913L99.9062 13.9257C98.8792 15.2989 98.3435 16.9146 98.3689 18.5619C98.3943 20.2091 98.9797 21.8113 100.049 23.1591L96.5788 26.2343C96.3003 26.1557 96.0102 26.1138 95.718 26.11C95.1223 26.11 94.5399 26.2666 94.0446 26.5599C93.5493 26.8532 93.1633 27.2701 92.9353 27.7579C92.7073 28.2457 92.6477 28.7824 92.7639 29.3002C92.8801 29.818 93.167 30.2937 93.5882 30.667C94.0094 31.0403 94.5461 31.2946 95.1304 31.3976C95.7146 31.5006 96.3202 31.4477 96.8706 31.2457C97.4209 31.0436 97.8913 30.7015 98.2223 30.2625C98.5532 29.8235 98.7299 29.3074 98.7299 28.7794C98.7259 28.5204 98.6786 28.2633 98.5897 28.0165L102.022 24.9743C103.143 25.7328 104.444 26.2544 105.826 26.4993C107.209 26.7441 108.637 26.7058 110 26.3871C111.363 26.0685 112.626 25.478 113.693 24.6607C114.759 23.8434 115.601 22.8209 116.154 21.6713C116.707 20.5217 116.956 19.2754 116.882 18.0275C116.809 16.7796 116.414 15.5631 115.729 14.4709C115.044 13.3786 114.087 12.4395 112.93 11.7253C111.773 11.0111 110.447 10.5405 109.054 10.3496ZM107.632 22.6621C106.693 22.6621 105.775 22.4152 104.994 21.9527C104.213 21.4902 103.604 20.8329 103.245 20.0638C102.885 19.2947 102.791 18.4484 102.974 17.632C103.158 16.8155 103.61 16.0655 104.274 15.4769C104.938 14.8883 105.784 14.4874 106.706 14.325C107.627 14.1626 108.582 14.2459 109.449 14.5645C110.317 14.8831 111.059 15.4225 111.581 16.1147C112.102 16.8069 112.381 17.6206 112.381 18.4531C112.381 19.5694 111.881 20.6399 110.99 21.4293C110.099 22.2186 108.892 22.6621 107.632 22.6621Z" fill="#9E9E9E"/>
</svg>
