<svg width="126" height="30" viewBox="0 0 126 30" fill="none" xmlns="http://www.w3.org/2000/svg">
<path d="M17.4973 28.0663C15.6132 28.3595 13.696 28.4474 11.7127 28.6816L5.66337 12.9786V29.3555C3.77927 29.5313 2.06042 29.7656 0.275391 30V0H5.29998L12.1754 17.0217V0H17.4973V28.0663ZM27.9099 10.9863C29.9595 10.9863 33.0997 10.8984 34.9838 10.8984V15.5858C32.6368 15.5858 29.8933 15.5858 27.9099 15.6737V22.6465C31.0172 22.4708 34.1245 22.2362 37.2646 22.1483V26.6597L22.6209 27.6854V0H37.2646V4.68751H27.9099V10.9863ZM56.9327 4.68762H51.4455V26.2501C49.6605 26.2501 47.8754 26.2501 46.1568 26.3085V4.68762H40.6696V0H56.9329L56.9327 4.68762ZM65.5271 10.6642H72.7664V15.3516H65.5271V25.9864H60.337V0H75.1133V4.68751H65.5271V10.6642ZM83.7077 21.8848C86.7158 21.9432 89.7568 22.1486 92.6989 22.2948V26.9238C87.972 26.66 83.245 26.3966 78.4189 26.3085V0H83.7077V21.8848ZM97.1613 27.2461C98.8471 27.3341 100.632 27.422 102.351 27.5975V0H97.1613V27.2461ZM125.523 0L118.813 14.2676L125.523 30C123.54 29.7656 121.556 29.4433 119.573 29.1503L115.772 20.4786L111.905 28.4474C109.987 28.1542 108.136 28.0663 106.219 27.8319L113.028 14.0917L106.88 0H112.565L116.036 7.88088L119.738 0H125.523Z" fill="#575757"/>
</svg>
